<?xml version="1.0" encoding="UTF-8" standalone="no"?>
<svg
   version="1.1"
   width="1046px"
   height="925px"
   style="shape-rendering:geometricPrecision; text-rendering:geometricPrecision; image-rendering:optimizeQuality; fill-rule:evenodd; clip-rule:evenodd"
   id="svg4"
   sodipodi:docname="Spike_Icon_SVG.svg"
   inkscape:version="1.3 (0e150ed6c4, 2023-07-21)"
   xmlns:inkscape="http://www.inkscape.org/namespaces/inkscape"
   xmlns:sodipodi="http://sodipodi.sourceforge.net/DTD/sodipodi-0.dtd"
   xmlns="http://www.w3.org/2000/svg"
   xmlns:svg="http://www.w3.org/2000/svg">
  <defs
     id="defs4" />
  <sodipodi:namedview
     id="namedview4"
     pagecolor="#ffffff"
     bordercolor="#999999"
     borderopacity="1"
     inkscape:showpageshadow="2"
     inkscape:pageopacity="0"
     inkscape:pagecheckerboard="0"
     inkscape:deskcolor="#d1d1d1"
     inkscape:zoom="1.2940541"
     inkscape:cx="522.77569"
     inkscape:cy="462.5"
     inkscape:window-width="2560"
     inkscape:window-height="1411"
     inkscape:window-x="-9"
     inkscape:window-y="599"
     inkscape:window-maximized="1"
     inkscape:current-layer="svg4" />
  <g
     id="g1"
     style="fill:#000000;fill-opacity:1">
    <path
       style="opacity:1;fill:#000000;fill-opacity:1"
       fill="#fefffe"
       d="M 79.5,-0.5 C 213.833,-0.5 348.167,-0.5 482.5,-0.5C 482.667,28.1686 482.5,56.8353 482,85.5C 399.177,100.718 336.51,144.384 294,216.5C 255.036,290.122 250.536,365.789 280.5,443.5C 257.736,457.745 234.569,471.412 211,484.5C 143.507,369.523 76.5072,254.189 10,138.5C 5.1573,128.141 1.6573,117.474 -0.5,106.5C -0.5,97.1667 -0.5,87.8333 -0.5,78.5C 8.2905,34.0427 34.9572,7.70939 79.5,-0.5 Z M 176.5,38.5 C 177.675,38.281 178.675,38.6143 179.5,39.5C 209.5,91.5 239.5,143.5 269.5,195.5C 208.5,196.833 147.5,196.833 86.5,195.5C 116.776,143.275 146.776,90.9415 176.5,38.5 Z"
       id="path1" />
  </g>
  <g
     id="g2"
     style="fill:#000000;fill-opacity:1">
    <path
       style="opacity:1;fill:#000000;fill-opacity:1"
       fill="#fefffe"
       d="M 562.5,-0.5 C 698.833,-0.5 835.167,-0.5 971.5,-0.5C 1003.45,6.26028 1025.61,24.9269 1038,55.5C 1041.31,64.4134 1043.81,73.4134 1045.5,82.5C 1045.5,92.5 1045.5,102.5 1045.5,112.5C 1043.26,124.717 1039.09,136.384 1033,147.5C 967.667,260.167 902.333,372.833 837,485.5C 812.254,471.545 787.754,457.212 763.5,442.5C 795.876,357.058 787.71,275.725 739,198.5C 696.055,136.585 637.221,99.2517 562.5,86.5C 562.5,57.5 562.5,28.5 562.5,-0.5 Z M 866.5,36.5 C 867.675,36.281 868.675,36.6143 869.5,37.5C 899.5,89.5 929.5,141.5 959.5,193.5C 898.5,194.833 837.5,194.833 776.5,193.5C 806.776,141.275 836.776,88.9415 866.5,36.5 Z"
       id="path2" />
  </g>
  <g
     id="g3"
     style="fill:#000000;fill-opacity:1">
    <path
       style="opacity:1;fill:#000000;fill-opacity:1"
       fill="#fefffe"
       d="M 519.5,148.5 C 521.199,148.34 522.866,148.506 524.5,149C 579.5,180.833 634.5,212.667 689.5,244.5C 690.833,310.167 690.833,375.833 689.5,441.5C 633.85,473.906 578.017,505.906 522,537.5C 465.402,505.699 409.068,473.365 353,440.5C 352.333,375.5 352.333,310.5 353,245.5C 408.645,213.266 464.145,180.933 519.5,148.5 Z M 520.5,232.5 C 522.655,232.372 524.655,232.872 526.5,234C 556.63,251.3 586.63,268.8 616.5,286.5C 617.833,323.833 617.833,361.167 616.5,398.5C 585.455,417.022 554.122,435.022 522.5,452.5C 490.708,434.769 459.042,416.769 427.5,398.5C 426.167,361.167 426.167,323.833 427.5,286.5C 458.727,268.726 489.727,250.726 520.5,232.5 Z"
       id="path3" />
  </g>
  <g
     id="g4"
     style="fill:#000000;fill-opacity:1">
    <path
       style="opacity:1;fill:#000000;fill-opacity:1"
       fill="#fefffe"
       d="M 541.5,924.5 C 530.833,924.5 520.167,924.5 509.5,924.5C 481.911,920.791 459.411,908.124 442,886.5C 378.286,775.569 314.453,664.736 250.5,554C 274.054,539.463 297.888,525.297 322,511.5C 380.988,578.962 455.488,609.796 545.5,604C 617.311,596.35 676.478,565.183 723,510.5C 747.916,525.041 772.749,539.707 797.5,554.5C 732.667,666.833 667.833,779.167 603,891.5C 586.829,910.503 566.329,921.503 541.5,924.5 Z M 522.5,636.5 C 523.675,636.281 524.675,636.614 525.5,637.5C 555.5,689.5 585.5,741.5 615.5,793.5C 554.5,794.833 493.5,794.833 432.5,793.5C 462.776,741.275 492.776,688.942 522.5,636.5 Z"
       id="path4" />
  </g>
</svg>
